<svg xmlns="http://www.w3.org/2000/svg" xmlns:xlink="http://www.w3.org/1999/xlink" version="1.1" x="0px" y="0px" viewBox="0 0 65 81.25" style="enable-background:new 0 0 65 65;" xml:space="preserve"><g><g><g><path d="M47.1,59.5L19,44c-1.1-0.6-2.6-0.2-3.3,1c-0.6,1.2-0.2,2.6,1,3.3l28.1,15.4c1.1,0.6,2.6,0.2,3.3-1     C48.7,61.5,48.3,60.1,47.1,59.5z"/></g><g><path d="M17.9,59.4c-1.2,0.6-1.6,2.1-1,3.3c0.6,1.1,2,1.6,3.3,1l10.4-5.5l-5.1-2.8L17.9,59.4z"/></g><g><path d="M46,44l-11.1,6.3l5.1,2.8l8.2-4.9c1.3-0.7,1.7-2.1,1.1-3.3C48.6,43.9,47.1,43.4,46,44z"/></g><g><path d="M54,36.2c-1.8-0.8-6.4-4.6-8.4-8.8c-4.6-9.7-21.9-9.2-26.2,0c-2,4.1-6.4,7.9-8.4,8.8c-0.9,0.4-1.3,1.5-0.9,2.4     c0.4,0.9,1.5,1.3,2.4,0.9c2-0.9,5.2-3.6,7.3-6.2c2.3-2.7,2.4-4,3.6-5.7c0.6-0.8,1.9-0.4,1.9,0.6v16.8l7.4,4.1l6.6-3.8     c0.3-17.6-0.6-17.9,0.7-18.4c1.7-0.7,2,2.8,5.1,6.4c2.2,2.6,5.4,5.3,7.4,6.2c0.9,0.4,2,0,2.4-0.9c0.2-0.4,0.2-0.9,0-1.4     C54.8,36.8,54.4,36.4,54,36.2z"/></g><g><circle cx="32.5" cy="7.6" r="6.6"/></g><g><path d="M10,10.1c0.4,0.4,1.1,0.4,1.5,0l1.1-1.1l1.1,1.1c0.4,0.4,1.1,0.4,1.5,0c0.4-0.4,0.4-1.1,0-1.5L14,7.6l1.1-1.1     c0.4-0.4,0.4-1.1,0-1.5c-0.4-0.4-1.1-0.4-1.5,0l-1.1,1.1l-1.1-1.1c-0.4-0.4-1.1-0.4-1.5,0c-0.4,0.4-0.4,1.1,0,1.5l1.1,1.1L10,8.7     C9.6,9.1,9.6,9.7,10,10.1z"/></g><g><path d="M46.8,10.1c0.4,0.4,1.1,0.4,1.5,0l1.1-1.1l1.1,1.1c0.4,0.4,1.1,0.4,1.5,0c0.4-0.4,0.4-1.1,0-1.5l-1.1-1.1l1.1-1.1     c0.4-0.4,0.4-1.1,0-1.5c-0.4-0.4-1.1-0.4-1.5,0l-1.1,1.1l-1.1-1.1c-0.4-0.4-1.1-0.4-1.5,0c-0.4,0.4-0.4,1.1,0,1.5l1.1,1.1     l-1.1,1.1C46.4,9.1,46.4,9.7,46.8,10.1z"/></g><g><path d="M60.6,16.5l1.1-1.1c0.4-0.4,0.4-1.1,0-1.5c-0.4-0.4-1.1-0.4-1.5,0L59.1,15L58,14c-0.4-0.4-1.1-0.4-1.5,0     c-0.4,0.4-0.4,1.1,0,1.5l1.1,1.1l-1.1,1.1c-0.4,0.4-0.4,1.1,0,1.5c0.4,0.4,1.1,0.4,1.5,0l1.1-1.1l1.1,1.1c0.4,0.4,1.1,0.4,1.5,0     c0.4-0.4,0.4-1.1,0-1.5L60.6,16.5z"/></g><g><path d="M8.4,19.1c-0.4-0.4-1.1-0.4-1.5,0l-1.1,1.1l-1.1-1.1c-0.4-0.4-1.1-0.4-1.5,0c-0.4,0.4-0.4,1.1,0,1.5l1.1,1.1l-1.1,1.1     c-0.4,0.4-0.4,1.1,0,1.5c0.4,0.4,1.1,0.4,1.5,0l1.1-1.1L7,24.2c0.4,0.4,1.1,0.4,1.5,0c0.4-0.4,0.4-1.1,0-1.5l-1.1-1.1l1.1-1.1     C8.8,20.1,8.8,19.5,8.4,19.1z"/></g></g></g><text x="0" y="80" fill="#000000" font-size="5px" font-weight="bold" font-family="'Helvetica Neue', Helvetica, Arial-Unicode, Arial, Sans-serif">Created by ProSymbols</text><text x="0" y="85" fill="#000000" font-size="5px" font-weight="bold" font-family="'Helvetica Neue', Helvetica, Arial-Unicode, Arial, Sans-serif">from the Noun Project</text></svg>